<svg xmlns="http://www.w3.org/2000/svg" xmlns:xlink="http://www.w3.org/1999/xlink" contentStyleType="text/css" data-diagram-type="CLASS" height="774px" preserveAspectRatio="none" style="width:2728px;height:774px;background:#FFFFFF;" version="1.1" viewBox="0 0 2728 774" width="2728px" zoomAndPan="magnify"><defs/><g><!--cluster calculs--><g class="cluster" data-entity="calculs" data-source-line="1" data-uid="ent0002" id="cluster_calculs"><path d="M591.5,22.29 L646.4424,22.29 A3.75,3.75 0 0 1 648.9424,24.79 L655.9424,44.5869 L1799.5,44.5869 A2.5,2.5 0 0 1 1802,47.0869 L1802,330.65 A2.5,2.5 0 0 1 1799.5,333.15 L591.5,333.15 A2.5,2.5 0 0 1 589,330.65 L589,24.79 A2.5,2.5 0 0 1 591.5,22.29" fill="none" style="stroke:#000000;stroke-width:1.5;"/><line style="stroke:#000000;stroke-width:1.5;" x1="589" x2="655.9424" y1="44.5869" y2="44.5869"/><text fill="#000000" font-family="sans-serif" font-size="14" font-weight="bold" lengthAdjust="spacing" textLength="53.9424" x="593" y="37.2851">calculs</text></g><!--cluster sauvegarde--><g class="cluster" data-entity="sauvegarde" data-source-line="31" data-uid="ent0005" id="cluster_sauvegarde"><path d="M1828.5,6 L1921.7578,6 A3.75,3.75 0 0 1 1924.2578,8.5 L1931.2578,28.2969 L2718.5,28.2969 A2.5,2.5 0 0 1 2721,30.7969 L2721,346.95 A2.5,2.5 0 0 1 2718.5,349.45 L1828.5,349.45 A2.5,2.5 0 0 1 1826,346.95 L1826,8.5 A2.5,2.5 0 0 1 1828.5,6" fill="none" style="stroke:#000000;stroke-width:1.5;"/><line style="stroke:#000000;stroke-width:1.5;" x1="1826" x2="1931.2578" y1="28.2969" y2="28.2969"/><text fill="#000000" font-family="sans-serif" font-size="14" font-weight="bold" lengthAdjust="spacing" textLength="92.2578" x="1830" y="20.9951">sauvegarde</text></g><!--cluster apprentissage--><g class="cluster" data-entity="apprentissage" data-source-line="56" data-uid="ent0008" id="cluster_apprentissage"><path d="M8.5,111.93 L122.4775,111.93 A3.75,3.75 0 0 1 124.9775,114.43 L131.9775,134.2269 L562.5,134.2269 A2.5,2.5 0 0 1 565,136.7269 L565,764.59 A2.5,2.5 0 0 1 562.5,767.09 L8.5,767.09 A2.5,2.5 0 0 1 6,764.59 L6,114.43 A2.5,2.5 0 0 1 8.5,111.93" fill="none" style="stroke:#000000;stroke-width:1.5;"/><line style="stroke:#000000;stroke-width:1.5;" x1="6" x2="131.9775" y1="134.2269" y2="134.2269"/><text fill="#000000" font-family="sans-serif" font-size="14" font-weight="bold" lengthAdjust="spacing" textLength="112.9775" x="10" y="126.9251">apprentissage</text></g><!--class CalculVision--><g class="entity" data-entity="CalculVision" data-source-line="2" data-uid="ent0003" id="entity_CalculVision"><rect fill="#F1F1F1" height="210.9688" rx="2.5" ry="2.5" style="stroke:#181818;stroke-width:0.5;" width="642.9639" x="604.52" y="81.74"/><ellipse cx="879.3554" cy="97.74" fill="#ADD1B2" rx="11" ry="11" style="stroke:#181818;stroke-width:1;"/><path d="M882.3242,103.3806 Q881.7461,103.6775 881.1054,103.8181 Q880.4648,103.9744 879.7617,103.9744 Q877.2617,103.9744 875.9336,102.3338 Q874.6211,100.6775 874.6211,97.5525 Q874.6211,94.4275 875.9336,92.7713 Q877.2617,91.115 879.7617,91.115 Q880.4648,91.115 881.1054,91.2713 Q881.7617,91.4275 882.3242,91.7244 L882.3242,94.4431 Q881.6992,93.865 881.1054,93.5994 Q880.5117,93.3181 879.8867,93.3181 Q878.5429,93.3181 877.8554,94.3963 Q877.1679,95.4588 877.1679,97.5525 Q877.1679,99.6463 877.8554,100.7244 Q878.5429,101.7869 879.8867,101.7869 Q880.5117,101.7869 881.1054,101.5213 Q881.6992,101.24 882.3242,100.6619 L882.3242,103.3806 Z " fill="#000000"/><text fill="#000000" font-family="sans-serif" font-size="14" lengthAdjust="spacing" textLength="84.793" x="899.8554" y="102.5867">CalculVision</text><line style="stroke:#181818;stroke-width:0.5;" x1="605.52" x2="1246.4839" y1="113.74" y2="113.74"/><ellipse cx="615.52" cy="127.3884" fill="none" rx="3" ry="3" style="stroke:#038048;stroke-width:1;"/><text fill="#000000" font-family="sans-serif" font-size="14" lengthAdjust="spacing" text-decoration="underline" textLength="89.8516" x="624.52" y="130.7351">carte : int[][]</text><line style="stroke:#181818;stroke-width:0.5;" x1="605.52" x2="1246.4839" y1="138.0369" y2="138.0369"/><ellipse cx="615.52" cy="151.6853" fill="#84BE84" rx="3" ry="3" style="stroke:#038048;stroke-width:1;"/><text fill="#000000" font-family="sans-serif" font-size="14" lengthAdjust="spacing" text-decoration="underline" textLength="461.1592" x="624.52" y="155.032">recupererVision(String): HashMap&lt;Position,ArrayList&lt;Position&gt;&gt;</text><ellipse cx="615.52" cy="167.9822" fill="#84BE84" rx="3" ry="3" style="stroke:#038048;stroke-width:1;"/><text fill="#000000" font-family="sans-serif" font-size="14" lengthAdjust="spacing" text-decoration="underline" textLength="132.1318" x="624.52" y="171.3289">ecrireVision(): void</text><ellipse cx="615.52" cy="184.2791" fill="#84BE84" rx="3" ry="3" style="stroke:#038048;stroke-width:1;"/><text fill="#000000" font-family="sans-serif" font-size="14" lengthAdjust="spacing" text-decoration="underline" textLength="298.8535" x="624.52" y="187.6257">ecrireFichierVision(HashMap, String) : void</text><ellipse cx="615.52" cy="200.5759" fill="#84BE84" rx="3" ry="3" style="stroke:#038048;stroke-width:1;"/><text fill="#000000" font-family="sans-serif" font-size="14" lengthAdjust="spacing" text-decoration="underline" textLength="220.2061" x="624.52" y="203.9226">calculerCarteVision(): HashMap</text><ellipse cx="615.52" cy="216.8728" fill="#84BE84" rx="3" ry="3" style="stroke:#038048;stroke-width:1;"/><text fill="#000000" font-family="sans-serif" font-size="14" lengthAdjust="spacing" text-decoration="underline" textLength="616.9639" x="624.52" y="220.2195">ajoutCamera(HashMap&lt;Position,ArrayList&lt;Position&gt;&gt;, int,int,int) : ArrayList&lt;Position&gt;</text><ellipse cx="615.52" cy="233.1697" fill="#84BE84" rx="3" ry="3" style="stroke:#038048;stroke-width:1;"/><text fill="#000000" font-family="sans-serif" font-size="14" lengthAdjust="spacing" text-decoration="underline" textLength="247.707" x="624.52" y="236.5164">calculerVision(int, int,int): ArrayList</text><rect fill="#F24D5C" height="6" style="stroke:#C82930;stroke-width:1;" width="6" x="612.52" y="246.4666"/><text fill="#000000" font-family="sans-serif" font-size="14" lengthAdjust="spacing" text-decoration="underline" textLength="422.543" x="624.52" y="252.8132">cleanVision(HashMap&lt;Position, ArrayList&lt;Position&gt;&gt;): void</text><rect fill="#F24D5C" height="6" style="stroke:#C82930;stroke-width:1;" width="6" x="612.52" y="262.7634"/><text fill="#000000" font-family="sans-serif" font-size="14" lengthAdjust="spacing" text-decoration="underline" textLength="368.5254" x="624.52" y="269.1101">cleanVisionCase (ArrayList&lt;Position&gt;, Position):void</text><rect fill="#F24D5C" height="6" style="stroke:#C82930;stroke-width:1;" width="6" x="612.52" y="279.0603"/><text fill="#000000" font-family="sans-serif" font-size="14" lengthAdjust="spacing" text-decoration="underline" textLength="555.9805" x="624.52" y="285.407">parcours(Position, Position, ArrayList&lt;Position&gt;, ArrayList&lt;Position&gt;): boolean</text></g><!--class CalculChemins--><g class="entity" data-entity="CalculChemins" data-source-line="14" data-uid="ent0004" id="entity_CalculChemins"><rect fill="#F1F1F1" height="259.8594" rx="2.5" ry="2.5" style="stroke:#181818;stroke-width:0.5;" width="503.8457" x="1282.08" y="57.29"/><ellipse cx="1477.9228" cy="73.29" fill="#ADD1B2" rx="11" ry="11" style="stroke:#181818;stroke-width:1;"/><path d="M1480.8915,78.9306 Q1480.3134,79.2275 1479.6728,79.3681 Q1479.0321,79.5244 1478.329,79.5244 Q1475.829,79.5244 1474.5009,77.8838 Q1473.1884,76.2275 1473.1884,73.1025 Q1473.1884,69.9775 1474.5009,68.3213 Q1475.829,66.665 1478.329,66.665 Q1479.0321,66.665 1479.6728,66.8213 Q1480.329,66.9775 1480.8915,67.2744 L1480.8915,69.9931 Q1480.2665,69.415 1479.6728,69.1494 Q1479.079,68.8681 1478.454,68.8681 Q1477.1103,68.8681 1476.4228,69.9463 Q1475.7353,71.0088 1475.7353,73.1025 Q1475.7353,75.1963 1476.4228,76.2744 Q1477.1103,77.3369 1478.454,77.3369 Q1479.079,77.3369 1479.6728,77.0713 Q1480.2665,76.79 1480.8915,76.2119 L1480.8915,78.9306 Z " fill="#000000"/><text fill="#000000" font-family="sans-serif" font-size="14" lengthAdjust="spacing" textLength="103.6602" x="1498.4228" y="78.1367">CalculChemins</text><line style="stroke:#181818;stroke-width:0.5;" x1="1283.08" x2="1784.9257" y1="89.29" y2="89.29"/><ellipse cx="1293.08" cy="102.9384" fill="none" rx="3" ry="3" style="stroke:#038048;stroke-width:1;"/><text fill="#000000" font-family="sans-serif" font-size="14" lengthAdjust="spacing" text-decoration="underline" textLength="89.8516" x="1302.08" y="106.2851">carte : int[][]</text><line style="stroke:#181818;stroke-width:0.5;" x1="1283.08" x2="1784.9257" y1="113.5869" y2="113.5869"/><ellipse cx="1293.08" cy="127.2353" fill="#84BE84" rx="3" ry="3" style="stroke:#038048;stroke-width:1;"/><text fill="#000000" font-family="sans-serif" font-size="14" lengthAdjust="spacing" text-decoration="underline" textLength="446.7012" x="1302.08" y="130.582">recupererCheminPrisonnier(): HashMap&lt;List&lt;Position&gt;,Stack&gt;</text><ellipse cx="1293.08" cy="143.5322" fill="#84BE84" rx="3" ry="3" style="stroke:#038048;stroke-width:1;"/><text fill="#000000" font-family="sans-serif" font-size="14" lengthAdjust="spacing" text-decoration="underline" textLength="432.1953" x="1302.08" y="146.8789">recupererCheminGardien(): HashMap&lt;List&lt;Position&gt;,Stack&gt;</text><rect fill="#F24D5C" height="6" style="stroke:#C82930;stroke-width:1;" width="6" x="1290.08" y="156.8291"/><text fill="#000000" font-family="sans-serif" font-size="14" lengthAdjust="spacing" text-decoration="underline" textLength="362.0996" x="1302.08" y="163.1757">lirefichier(String): HashMap&lt;List&lt;Position&gt;,Stack&gt;</text><ellipse cx="1293.08" cy="176.1259" fill="#84BE84" rx="3" ry="3" style="stroke:#038048;stroke-width:1;"/><text fill="#000000" font-family="sans-serif" font-size="14" lengthAdjust="spacing" text-decoration="underline" textLength="192.7803" x="1302.08" y="179.4726">ecrireChemins(String): void</text><rect fill="#F24D5C" height="6" style="stroke:#C82930;stroke-width:1;" width="6" x="1290.08" y="189.4228"/><text fill="#000000" font-family="sans-serif" font-size="14" lengthAdjust="spacing" text-decoration="underline" textLength="294.8682" x="1302.08" y="195.7695">ecrireFichier(String, Boolean, String): void</text><ellipse cx="1293.08" cy="208.7197" fill="#84BE84" rx="3" ry="3" style="stroke:#038048;stroke-width:1;"/><text fill="#000000" font-family="sans-serif" font-size="14" lengthAdjust="spacing" text-decoration="underline" textLength="477.8457" x="1302.08" y="212.0664">calculerChemins(Boolean, String): HashMap&lt;List&lt;Position&gt;,Stack&gt;</text><ellipse cx="1293.08" cy="225.0166" fill="#84BE84" rx="3" ry="3" style="stroke:#038048;stroke-width:1;"/><text fill="#000000" font-family="sans-serif" font-size="14" lengthAdjust="spacing" text-decoration="underline" textLength="231.3828" x="1302.08" y="228.3632">isValid(int, int, Position): boolean</text><ellipse cx="1293.08" cy="241.3134" fill="#84BE84" rx="3" ry="3" style="stroke:#038048;stroke-width:1;"/><text fill="#000000" font-family="sans-serif" font-size="14" lengthAdjust="spacing" text-decoration="underline" textLength="319.3271" x="1302.08" y="244.6601">isUnblocked(int[][], int, int, Position): boolean</text><ellipse cx="1293.08" cy="257.6103" fill="#84BE84" rx="3" ry="3" style="stroke:#038048;stroke-width:1;"/><text fill="#000000" font-family="sans-serif" font-size="14" lengthAdjust="spacing" text-decoration="underline" textLength="286.501" x="1302.08" y="260.957">isDestination(Position, Position): boolean</text><ellipse cx="1293.08" cy="273.9072" fill="#84BE84" rx="3" ry="3" style="stroke:#038048;stroke-width:1;"/><text fill="#000000" font-family="sans-serif" font-size="14" lengthAdjust="spacing" text-decoration="underline" textLength="300.0908" x="1302.08" y="277.2539">calculateHValue(Position, Position): double</text><ellipse cx="1293.08" cy="290.2041" fill="#84BE84" rx="3" ry="3" style="stroke:#038048;stroke-width:1;"/><text fill="#000000" font-family="sans-serif" font-size="14" lengthAdjust="spacing" text-decoration="underline" textLength="238.2939" x="1302.08" y="293.5507">tracePath(Cell[][], Position): Stack</text><ellipse cx="1293.08" cy="306.5009" fill="#84BE84" rx="3" ry="3" style="stroke:#038048;stroke-width:1;"/><text fill="#000000" font-family="sans-serif" font-size="14" lengthAdjust="spacing" text-decoration="underline" textLength="366.7686" x="1302.08" y="309.8476">aStarSearch(int[][], int, int, Position, Position): Stack</text></g><!--class Sauvegarde--><g class="entity" data-entity="Sauvegarde" data-source-line="32" data-uid="ent0006" id="entity_Sauvegarde"><rect fill="#F1F1F1" height="113.1875" rx="2.5" ry="2.5" style="stroke:#181818;stroke-width:0.5;" width="303.3818" x="1842.31" y="130.63"/><ellipse cx="1947.7714" cy="146.63" fill="#ADD1B2" rx="11" ry="11" style="stroke:#181818;stroke-width:1;"/><path d="M1950.7402,152.2706 Q1950.1621,152.5675 1949.5214,152.7081 Q1948.8808,152.8644 1948.1777,152.8644 Q1945.6777,152.8644 1944.3496,151.2238 Q1943.0371,149.5675 1943.0371,146.4425 Q1943.0371,143.3175 1944.3496,141.6613 Q1945.6777,140.005 1948.1777,140.005 Q1948.8808,140.005 1949.5214,140.1613 Q1950.1777,140.3175 1950.7402,140.6144 L1950.7402,143.3331 Q1950.1152,142.755 1949.5214,142.4894 Q1948.9277,142.2081 1948.3027,142.2081 Q1946.9589,142.2081 1946.2714,143.2863 Q1945.5839,144.3488 1945.5839,146.4425 Q1945.5839,148.5363 1946.2714,149.6144 Q1946.9589,150.6769 1948.3027,150.6769 Q1948.9277,150.6769 1949.5214,150.4113 Q1950.1152,150.13 1950.7402,149.5519 L1950.7402,152.2706 Z " fill="#000000"/><text fill="#000000" font-family="sans-serif" font-size="14" lengthAdjust="spacing" textLength="83.959" x="1968.2714" y="151.4767">Sauvegarde</text><line style="stroke:#181818;stroke-width:0.5;" x1="1843.31" x2="2144.6918" y1="162.63" y2="162.63"/><line style="stroke:#181818;stroke-width:0.5;" x1="1843.31" x2="2144.6918" y1="170.63" y2="170.63"/><ellipse cx="1853.31" cy="184.2784" fill="#84BE84" rx="3" ry="3" style="stroke:#038048;stroke-width:1;"/><text fill="#000000" font-family="sans-serif" font-size="14" lengthAdjust="spacing" text-decoration="underline" textLength="137.4023" x="1862.31" y="187.6251">main(String[]): void</text><ellipse cx="1853.31" cy="200.5753" fill="#84BE84" rx="3" ry="3" style="stroke:#038048;stroke-width:1;"/><text fill="#000000" font-family="sans-serif" font-size="14" lengthAdjust="spacing" text-decoration="underline" textLength="263.0947" x="1862.31" y="203.922">sauvegarder(Simulation, String): void</text><ellipse cx="1853.31" cy="216.8722" fill="#84BE84" rx="3" ry="3" style="stroke:#038048;stroke-width:1;"/><text fill="#000000" font-family="sans-serif" font-size="14" lengthAdjust="spacing" text-decoration="underline" textLength="190.6064" x="1862.31" y="220.2189">charger(String): Simulation</text><ellipse cx="1853.31" cy="233.1691" fill="#84BE84" rx="3" ry="3" style="stroke:#038048;stroke-width:1;"/><text fill="#000000" font-family="sans-serif" font-size="14" lengthAdjust="spacing" text-decoration="underline" textLength="277.3818" x="1862.31" y="236.5157">nomsSauvegardes(): ArrayList&lt;String&gt;</text></g><!--class SimulationSerializable--><g class="entity" data-entity="SimulationSerializable" data-source-line="38" data-uid="ent0007" id="entity_SimulationSerializable"><rect fill="#F1F1F1" height="292.4531" rx="2.5" ry="2.5" style="stroke:#181818;stroke-width:0.5;" width="524.7021" x="2180.65" y="41"/><ellipse cx="2361.0538" cy="57" fill="#ADD1B2" rx="11" ry="11" style="stroke:#181818;stroke-width:1;"/><path d="M2364.0226,62.6406 Q2363.4444,62.9375 2362.8038,63.0781 Q2362.1632,63.2344 2361.4601,63.2344 Q2358.9601,63.2344 2357.6319,61.5938 Q2356.3194,59.9375 2356.3194,56.8125 Q2356.3194,53.6875 2357.6319,52.0313 Q2358.9601,50.375 2361.4601,50.375 Q2362.1632,50.375 2362.8038,50.5313 Q2363.4601,50.6875 2364.0226,50.9844 L2364.0226,53.7031 Q2363.3976,53.125 2362.8038,52.8594 Q2362.2101,52.5781 2361.5851,52.5781 Q2360.2413,52.5781 2359.5538,53.6563 Q2358.8663,54.7188 2358.8663,56.8125 Q2358.8663,58.9063 2359.5538,59.9844 Q2360.2413,61.0469 2361.5851,61.0469 Q2362.2101,61.0469 2362.8038,60.7813 Q2363.3976,60.5 2364.0226,59.9219 L2364.0226,62.6406 Z " fill="#000000"/><text fill="#000000" font-family="sans-serif" font-size="14" lengthAdjust="spacing" textLength="155.3945" x="2381.5538" y="61.8467">SimulationSerializable</text><line style="stroke:#181818;stroke-width:0.5;" x1="2181.65" x2="2704.3521" y1="73" y2="73"/><rect fill="none" height="6" style="stroke:#C82930;stroke-width:1;" width="6" x="2188.65" y="83.6484"/><text fill="#000000" font-family="sans-serif" font-size="14" lengthAdjust="spacing" textLength="84.2188" x="2200.65" y="89.9951">nbTours: int</text><rect fill="none" height="6" style="stroke:#C82930;stroke-width:1;" width="6" x="2188.65" y="99.9453"/><text fill="#000000" font-family="sans-serif" font-size="14" lengthAdjust="spacing" textLength="145.1475" x="2200.65" y="106.292">gardien: Personnage</text><rect fill="none" height="6" style="stroke:#C82930;stroke-width:1;" width="6" x="2188.65" y="116.2422"/><text fill="#000000" font-family="sans-serif" font-size="14" lengthAdjust="spacing" textLength="162.0596" x="2200.65" y="122.5889">prisonnier: Personnage</text><rect fill="none" height="6" style="stroke:#C82930;stroke-width:1;" width="6" x="2188.65" y="132.5391"/><text fill="#000000" font-family="sans-serif" font-size="14" lengthAdjust="spacing" textLength="187.2773" x="2200.65" y="138.8857">victoirePrisonnier: boolean</text><rect fill="none" height="6" style="stroke:#C82930;stroke-width:1;" width="6" x="2188.65" y="148.8359"/><text fill="#000000" font-family="sans-serif" font-size="14" lengthAdjust="spacing" textLength="172.7715" x="2200.65" y="155.1826">victoireGardien: boolean</text><rect fill="none" height="6" style="stroke:#C82930;stroke-width:1;" width="6" x="2188.65" y="165.1328"/><text fill="#000000" font-family="sans-serif" font-size="14" lengthAdjust="spacing" textLength="281.6338" x="2200.65" y="171.4795">comportementGardien: Comportements</text><rect fill="none" height="6" style="stroke:#C82930;stroke-width:1;" width="6" x="2188.65" y="181.4297"/><text fill="#000000" font-family="sans-serif" font-size="14" lengthAdjust="spacing" textLength="296.1396" x="2200.65" y="187.7764">comportementPrisonnier: Comportements</text><rect fill="none" height="6" style="stroke:#C82930;stroke-width:1;" width="6" x="2188.65" y="197.7266"/><text fill="#000000" font-family="sans-serif" font-size="14" lengthAdjust="spacing" textLength="421.374" x="2200.65" y="204.0732">historiquePosition : HashMap&lt;Personnage, List&lt;Position&gt;&gt;</text><rect fill="none" height="6" style="stroke:#C82930;stroke-width:1;" width="6" x="2188.65" y="214.0234"/><text fill="#000000" font-family="sans-serif" font-size="14" lengthAdjust="spacing" textLength="444.6709" x="2200.65" y="220.3701">historiqueBayesien : HashMap&lt;Personnage, List&lt;double[][]&gt;&gt;</text><rect fill="none" height="6" style="stroke:#C82930;stroke-width:1;" width="6" x="2188.65" y="230.3203"/><text fill="#000000" font-family="sans-serif" font-size="14" lengthAdjust="spacing" textLength="498.7021" x="2200.65" y="236.667">historiqueDeplacement : HashMap&lt;Personnage, List&lt;Deplacement&gt;&gt;</text><rect fill="none" height="6" style="stroke:#C82930;stroke-width:1;" width="6" x="2188.65" y="246.6172"/><text fill="#000000" font-family="sans-serif" font-size="14" lengthAdjust="spacing" textLength="115.6914" x="2200.65" y="252.9639">estFini : boolean</text><rect fill="none" height="6" style="stroke:#C82930;stroke-width:1;" width="6" x="2188.65" y="262.9141"/><text fill="#000000" font-family="sans-serif" font-size="14" lengthAdjust="spacing" textLength="387.5225" x="2200.65" y="269.2607">carteBayesiennes : HashMap&lt;Personnage, double[][]&gt;</text><rect fill="none" height="6" style="stroke:#C82930;stroke-width:1;" width="6" x="2188.65" y="279.2109"/><text fill="#000000" font-family="sans-serif" font-size="14" lengthAdjust="spacing" textLength="327.373" x="2200.65" y="285.5576">bayesiens : HashMap&lt;Personnage, Bayesien&gt;</text><line style="stroke:#181818;stroke-width:0.5;" x1="2181.65" x2="2704.3521" y1="292.8594" y2="292.8594"/><ellipse cx="2191.65" cy="306.5078" fill="#84BE84" rx="3" ry="3" style="stroke:#038048;stroke-width:1;"/><text fill="#000000" font-family="sans-serif" font-size="14" lengthAdjust="spacing" textLength="240.8916" x="2200.65" y="309.8545">SimulationSerializable(Simulation)</text><ellipse cx="2191.65" cy="322.8047" fill="#84BE84" rx="3" ry="3" style="stroke:#038048;stroke-width:1;"/><text fill="#000000" font-family="sans-serif" font-size="14" lengthAdjust="spacing" textLength="205.6729" x="2200.65" y="326.1514">creerSimulation(): Simulation</text></g><!--class ApprentissageArbre--><g class="entity" data-entity="ApprentissageArbre" data-source-line="57" data-uid="ent0009" id="entity_ApprentissageArbre"><rect fill="#F1F1F1" height="80.5938" rx="2.5" ry="2.5" style="stroke:#181818;stroke-width:0.5;" width="287.5635" x="22.22" y="146.93"/><ellipse cx="92.138" cy="162.93" fill="#ADD1B2" rx="11" ry="11" style="stroke:#181818;stroke-width:1;"/><path d="M95.1067,168.5706 Q94.5286,168.8675 93.888,169.0081 Q93.2473,169.1644 92.5442,169.1644 Q90.0442,169.1644 88.7161,167.5238 Q87.4036,165.8675 87.4036,162.7425 Q87.4036,159.6175 88.7161,157.9613 Q90.0442,156.305 92.5442,156.305 Q93.2473,156.305 93.888,156.4613 Q94.5442,156.6175 95.1067,156.9144 L95.1067,159.6331 Q94.4817,159.055 93.888,158.7894 Q93.2942,158.5081 92.6692,158.5081 Q91.3255,158.5081 90.638,159.5863 Q89.9505,160.6488 89.9505,162.7425 Q89.9505,164.8363 90.638,165.9144 Q91.3255,166.9769 92.6692,166.9769 Q93.2942,166.9769 93.888,166.7113 Q94.4817,166.43 95.1067,165.8519 L95.1067,168.5706 Z " fill="#000000"/><text fill="#000000" font-family="sans-serif" font-size="14" lengthAdjust="spacing" textLength="139.2275" x="112.638" y="167.7767">ApprentissageArbre</text><line style="stroke:#181818;stroke-width:0.5;" x1="23.22" x2="308.7835" y1="178.93" y2="178.93"/><line style="stroke:#181818;stroke-width:0.5;" x1="23.22" x2="308.7835" y1="186.93" y2="186.93"/><ellipse cx="33.22" cy="200.5784" fill="#84BE84" rx="3" ry="3" style="stroke:#038048;stroke-width:1;"/><text fill="#000000" font-family="sans-serif" font-size="14" lengthAdjust="spacing" textLength="137.4023" x="42.22" y="203.9251">main(String[]): void</text><ellipse cx="33.22" cy="216.8753" fill="#84BE84" rx="3" ry="3" style="stroke:#038048;stroke-width:1;"/><text fill="#000000" font-family="sans-serif" font-size="14" lengthAdjust="spacing" textLength="261.5635" x="42.22" y="220.222">afficherRecord(CSVDatasetCNN):void</text></g><!--class ApprentissageQLearning--><g class="entity" data-entity="ApprentissageQLearning" data-source-line="61" data-uid="ent0010" id="entity_ApprentissageQLearning"><rect fill="#F1F1F1" height="64.2969" rx="2.5" ry="2.5" style="stroke:#181818;stroke-width:0.5;" width="204.9287" x="344.54" y="155.07"/><ellipse cx="359.54" cy="171.07" fill="#ADD1B2" rx="11" ry="11" style="stroke:#181818;stroke-width:1;"/><path d="M362.5088,176.7106 Q361.9306,177.0075 361.29,177.1481 Q360.6494,177.3044 359.9463,177.3044 Q357.4463,177.3044 356.1181,175.6638 Q354.8056,174.0075 354.8056,170.8825 Q354.8056,167.7575 356.1181,166.1013 Q357.4463,164.445 359.9463,164.445 Q360.6494,164.445 361.29,164.6013 Q361.9463,164.7575 362.5088,165.0544 L362.5088,167.7731 Q361.8838,167.195 361.29,166.9294 Q360.6963,166.6481 360.0713,166.6481 Q358.7275,166.6481 358.04,167.7263 Q357.3525,168.7888 357.3525,170.8825 Q357.3525,172.9763 358.04,174.0544 Q358.7275,175.1169 360.0713,175.1169 Q360.6963,175.1169 361.29,174.8513 Q361.8838,174.57 362.5088,173.9919 L362.5088,176.7106 Z " fill="#000000"/><text fill="#000000" font-family="sans-serif" font-size="14" lengthAdjust="spacing" textLength="172.9287" x="373.54" y="175.9167">ApprentissageQLearning</text><line style="stroke:#181818;stroke-width:0.5;" x1="345.54" x2="548.4687" y1="187.07" y2="187.07"/><line style="stroke:#181818;stroke-width:0.5;" x1="345.54" x2="548.4687" y1="195.07" y2="195.07"/><ellipse cx="355.54" cy="208.7184" fill="#84BE84" rx="3" ry="3" style="stroke:#038048;stroke-width:1;"/><text fill="#000000" font-family="sans-serif" font-size="14" lengthAdjust="spacing" textLength="137.4023" x="364.54" y="212.0651">main(String[]): void</text></g><!--class OptimisationBayesienne--><g class="entity" data-entity="OptimisationBayesienne" data-source-line="64" data-uid="ent0011" id="entity_OptimisationBayesienne"><rect fill="#F1F1F1" height="357.6406" rx="2.5" ry="2.5" style="stroke:#181818;stroke-width:0.5;" width="290.1885" x="21.91" y="393.45"/><ellipse cx="77.3836" cy="409.45" fill="#ADD1B2" rx="11" ry="11" style="stroke:#181818;stroke-width:1;"/><path d="M80.3524,415.0906 Q79.7743,415.3875 79.1336,415.5281 Q78.493,415.6844 77.7899,415.6844 Q75.2899,415.6844 73.9618,414.0438 Q72.6493,412.3875 72.6493,409.2625 Q72.6493,406.1375 73.9618,404.4813 Q75.2899,402.825 77.7899,402.825 Q78.493,402.825 79.1336,402.9813 Q79.7899,403.1375 80.3524,403.4344 L80.3524,406.1531 Q79.7274,405.575 79.1336,405.3094 Q78.5399,405.0281 77.9149,405.0281 Q76.5711,405.0281 75.8836,406.1063 Q75.1961,407.1688 75.1961,409.2625 Q75.1961,411.3563 75.8836,412.4344 Q76.5711,413.4969 77.9149,413.4969 Q78.5399,413.4969 79.1336,413.2313 Q79.7274,412.95 80.3524,412.3719 L80.3524,415.0906 Z " fill="#000000"/><text fill="#000000" font-family="sans-serif" font-size="14" lengthAdjust="spacing" textLength="170.7412" x="97.8836" y="414.2967">OptimisationBayesienne</text><line style="stroke:#181818;stroke-width:0.5;" x1="22.91" x2="311.0985" y1="425.45" y2="425.45"/><rect fill="none" height="6" style="stroke:#C82930;stroke-width:1;" width="6" x="29.91" y="436.0984"/><text fill="#000000" font-family="sans-serif" font-size="14" lengthAdjust="spacing" text-decoration="underline" textLength="165.3818" x="41.91" y="442.4451">final MIN_NEURONS: int</text><rect fill="none" height="6" style="stroke:#C82930;stroke-width:1;" width="6" x="29.91" y="452.3953"/><text fill="#000000" font-family="sans-serif" font-size="14" lengthAdjust="spacing" text-decoration="underline" textLength="169.9482" x="41.91" y="458.742">final MAX_NEURONS: int</text><rect fill="none" height="6" style="stroke:#C82930;stroke-width:1;" width="6" x="29.91" y="468.6922"/><text fill="#000000" font-family="sans-serif" font-size="14" lengthAdjust="spacing" text-decoration="underline" textLength="149.0986" x="41.91" y="475.0389">final MIN_LAYERS: int</text><rect fill="none" height="6" style="stroke:#C82930;stroke-width:1;" width="6" x="29.91" y="484.9891"/><text fill="#000000" font-family="sans-serif" font-size="14" lengthAdjust="spacing" text-decoration="underline" textLength="153.665" x="41.91" y="491.3357">final MAX_LAYERS: int</text><rect fill="none" height="6" style="stroke:#C82930;stroke-width:1;" width="6" x="29.91" y="501.2859"/><text fill="#000000" font-family="sans-serif" font-size="14" lengthAdjust="spacing" text-decoration="underline" textLength="182.335" x="41.91" y="507.6326">final INITIAL_SAMPLES: int</text><rect fill="none" height="6" style="stroke:#C82930;stroke-width:1;" width="6" x="29.91" y="517.5828"/><text fill="#000000" font-family="sans-serif" font-size="14" lengthAdjust="spacing" text-decoration="underline" textLength="145.9199" x="41.91" y="523.9295">final ITERATIONS: int</text><ellipse cx="32.91" cy="536.8797" fill="none" rx="3" ry="3" style="stroke:#038048;stroke-width:1;"/><text fill="#000000" font-family="sans-serif" font-size="14" lengthAdjust="spacing" text-decoration="underline" textLength="96.3936" x="41.91" y="540.2264">lossMini: float</text><ellipse cx="32.91" cy="553.1766" fill="none" rx="3" ry="3" style="stroke:#038048;stroke-width:1;"/><text fill="#000000" font-family="sans-serif" font-size="14" lengthAdjust="spacing" text-decoration="underline" textLength="77.1982" x="41.91" y="556.5232">BETA: float</text><rect fill="none" height="6" style="stroke:#C82930;stroke-width:1;" width="6" x="29.91" y="566.4734"/><text fill="#000000" font-family="sans-serif" font-size="14" lengthAdjust="spacing" text-decoration="underline" textLength="182.875" x="41.91" y="572.8201">testedConfigs: List&lt;int[]&gt;</text><rect fill="none" height="6" style="stroke:#C82930;stroke-width:1;" width="6" x="29.91" y="582.7703"/><text fill="#000000" font-family="sans-serif" font-size="14" lengthAdjust="spacing" text-decoration="underline" textLength="184.9326" x="41.91" y="589.117">lossResults: List&lt;Double&gt;</text><rect fill="none" height="6" style="stroke:#C82930;stroke-width:1;" width="6" x="29.91" y="599.0672"/><text fill="#000000" font-family="sans-serif" font-size="14" lengthAdjust="spacing" text-decoration="underline" textLength="121.7344" x="41.91" y="605.4139">random: Random</text><line style="stroke:#181818;stroke-width:0.5;" x1="22.91" x2="311.0985" y1="612.7156" y2="612.7156"/><ellipse cx="32.91" cy="626.3641" fill="#84BE84" rx="3" ry="3" style="stroke:#038048;stroke-width:1;"/><text fill="#000000" font-family="sans-serif" font-size="14" lengthAdjust="spacing" textLength="137.4023" x="41.91" y="629.7107">main(String[]): void</text><rect fill="#F24D5C" height="6" style="stroke:#C82930;stroke-width:1;" width="6" x="29.91" y="639.6609"/><text fill="#000000" font-family="sans-serif" font-size="14" lengthAdjust="spacing" text-decoration="underline" textLength="175.4443" x="41.91" y="646.0076">getRandomConfig(): int[]</text><rect fill="#F24D5C" height="6" style="stroke:#C82930;stroke-width:1;" width="6" x="29.91" y="655.9578"/><text fill="#000000" font-family="sans-serif" font-size="14" lengthAdjust="spacing" text-decoration="underline" textLength="232.4082" x="41.91" y="662.3045">suggestNextConfiguration(): int[]</text><rect fill="#F24D5C" height="6" style="stroke:#C82930;stroke-width:1;" width="6" x="29.91" y="672.2547"/><text fill="#000000" font-family="sans-serif" font-size="14" lengthAdjust="spacing" text-decoration="underline" textLength="208.8652" x="41.91" y="678.6014">getRandomNearConfig(): int[]</text><rect fill="#F24D5C" height="6" style="stroke:#C82930;stroke-width:1;" width="6" x="29.91" y="688.5516"/><text fill="#000000" font-family="sans-serif" font-size="14" lengthAdjust="spacing" text-decoration="underline" textLength="184.3447" x="41.91" y="694.8982">predictMean(int[]): double</text><rect fill="#F24D5C" height="6" style="stroke:#C82930;stroke-width:1;" width="6" x="29.91" y="704.8484"/><text fill="#000000" font-family="sans-serif" font-size="14" lengthAdjust="spacing" text-decoration="underline" textLength="207.7646" x="41.91" y="711.1951">predictVariance(int[]): double</text><rect fill="#F24D5C" height="6" style="stroke:#C82930;stroke-width:1;" width="6" x="29.91" y="721.1453"/><text fill="#000000" font-family="sans-serif" font-size="14" lengthAdjust="spacing" text-decoration="underline" textLength="264.1885" x="41.91" y="727.492">euclideanDistance(int[], int[]): double</text><rect fill="#F24D5C" height="6" style="stroke:#C82930;stroke-width:1;" width="6" x="29.91" y="737.4422"/><text fill="#000000" font-family="sans-serif" font-size="14" lengthAdjust="spacing" text-decoration="underline" textLength="157.9033" x="41.91" y="743.7889">evaluate(int[]): double</text></g><!--SRC=[dLRRRjiu47tFLn1vSX3l3nY10KLsMmEswxNTe4KG5BGybjbAf9QaWbxWV-zGr8MMAKVRXo09USwP6NBEK1cDljCOo6r4aoXFrEtl6qAYX2f5mcBbYIack5abv9xyLffg5fr8HAK6CYACw-UNvvVsjeGepq22jFJ1Hal6uxiH-K3LSK6pXvLGJEFEC92I_fmpfUkbyRYj1f5a4aef57aLRE_7l6FHaTLHos13KeOdVgej7MHeQcgYbEmscduJkGvf2f8EUbKpD8SqB7zC3XvGLqfbDePSgTmv0WNj7uUM0ENdnJUv-UAEtTFq2uLK0Hbuk4DI_NatycbaL4OYbshGP70r5-yYvhSJmcI3ygTMRuP7I1bNvA-xqmgi95E2S-mRvzeVMibjD3fb_8RIUoht37W_6UUe4cpTWstTIwlqIiIsVtaWZORlNiwSKaA7vD6USksLDwnI1hfa_Q-icNgY2Tit_Usqb7FlBSudlaj4z1qAdhdVajjRO09ACquDpDEStKnRFTNm0TFEmS_TYtoNG9kg9OrWHVLn44AIsAGTKd4y5vC6L-K6q4R7QvLwXKutfvkRh1pkYkQl46DlWdMAzT2cjUf4JYchPlRpIqShDABOH2mrvr8aSxr_ZbJ6RfCtp3QKYrGrAQg1E_SUBD_sqycjgPRRW6JOMxyeNeQjpzg0xxPcA1MpmLcEhND7P0NI30CyDcStgoT41-2LHLgWgrOEq6sYSzJxAjWb919f9d1ufS1r3GkTHTK1TYDtuOzuT4Ao_tAeEeOuBt9Trv3utkEsn2Fz2GhJkoPXlM0QjqDa0bc2nZ29NjDnO6T2wEDtZ3FYFKdp1bH9Sb0T-awA3dbNyhfObMx3kU_eFSSRTmuuaW2osHfSMi4uk3BmBSqoYSKpfV3VMzV5WRiJo9rqkls-syXscnxCgmDo3P6G-q6uUPfGZU-z3fTBvr4_TSNxTuxJYQDu4_EDkAxKnqopbAcYvEQYNBFMm-20upeXYzdowtBwQVrnkMdxjuqCFlT5ekOy-39Tzv7i1PmjPzjPCF-w2HQh-VHDz7Qw3hQpYqITIPW8fHROvYDoI0JrGXwdsw2zxOJIQ1JOXu8VM8oZh_1KyQACVMWJRmqgJtI5dHGcyO8bvNkHZiYw-DstzHo16BJbslIC4uhKV5YLnp6MieGVsg9pMTkdarG7M6ApzWY2_Rt7GRt0SMAVtVD7tOz-ecXv7a4F1kGHVlEW-WIFjk4CIG_gAtvtuFU7BufnrkaF]--></g></svg>