<svg xmlns="http://www.w3.org/2000/svg" xmlns:xlink="http://www.w3.org/1999/xlink" contentStyleType="text/css" data-diagram-type="CLASS" height="751px" preserveAspectRatio="none" style="width:2173px;height:751px;background:#FFFFFF;" version="1.1" viewBox="0 0 2173 751" width="2173px" zoomAndPan="magnify"><defs/><g><!--cluster lancercalculs--><g class="cluster" data-entity="lancercalculs" data-source-line="1" data-uid="ent0002" id="cluster_lancercalculs"><path d="M8.5,6 L112.3535,6 A3.75,3.75 0 0 1 114.8535,8.5 L121.8535,28.2969 L895.5,28.2969 A2.5,2.5 0 0 1 898,30.7969 L898,742.22 A2.5,2.5 0 0 1 895.5,744.72 L8.5,744.72 A2.5,2.5 0 0 1 6,742.22 L6,8.5 A2.5,2.5 0 0 1 8.5,6" fill="none" style="stroke:#000000;stroke-width:1.5;"/><line style="stroke:#000000;stroke-width:1.5;" x1="6" x2="121.8535" y1="28.2969" y2="28.2969"/><text fill="#000000" font-family="sans-serif" font-size="14" font-weight="bold" lengthAdjust="spacing" textLength="102.8535" x="10" y="20.9951">lancercalculs</text></g><!--cluster outils--><g class="cluster" data-entity="outils" data-source-line="49" data-uid="ent0010" id="cluster_outils"><path d="M924.5,120.08 L969.708,120.08 A3.75,3.75 0 0 1 972.208,122.58 L979.208,142.3769 L2163.5,142.3769 A2.5,2.5 0 0 1 2166,144.8769 L2166,617.92 A2.5,2.5 0 0 1 2163.5,620.42 L924.5,620.42 A2.5,2.5 0 0 1 922,617.92 L922,122.58 A2.5,2.5 0 0 1 924.5,120.08" fill="none" style="stroke:#000000;stroke-width:1.5;"/><line style="stroke:#000000;stroke-width:1.5;" x1="922" x2="979.208" y1="142.3769" y2="142.3769"/><text fill="#000000" font-family="sans-serif" font-size="14" font-weight="bold" lengthAdjust="spacing" textLength="44.208" x="926" y="135.0751">outils</text></g><!--class LancerCalculs--><g class="entity" data-entity="LancerCalculs" data-source-line="2" data-uid="ent0003" id="entity_LancerCalculs"><rect fill="#F1F1F1" height="113.1875" rx="2.5" ry="2.5" style="stroke:#181818;stroke-width:0.5;" width="163.4023" x="22.3" y="187.67"/><ellipse cx="52.6387" cy="203.67" fill="#ADD1B2" rx="11" ry="11" style="stroke:#181818;stroke-width:1;"/><path d="M55.6074,209.3106 Q55.0293,209.6075 54.3887,209.7481 Q53.748,209.9044 53.0449,209.9044 Q50.5449,209.9044 49.2168,208.2638 Q47.9043,206.6075 47.9043,203.4825 Q47.9043,200.3575 49.2168,198.7013 Q50.5449,197.045 53.0449,197.045 Q53.748,197.045 54.3887,197.2013 Q55.0449,197.3575 55.6074,197.6544 L55.6074,200.3731 Q54.9824,199.795 54.3887,199.5294 Q53.7949,199.2481 53.1699,199.2481 Q51.8262,199.2481 51.1387,200.3263 Q50.4512,201.3888 50.4512,203.4825 Q50.4512,205.5763 51.1387,206.6544 Q51.8262,207.7169 53.1699,207.7169 Q53.7949,207.7169 54.3887,207.4513 Q54.9824,207.17 55.6074,206.5919 L55.6074,209.3106 Z " fill="#000000"/><text fill="#000000" font-family="sans-serif" font-size="14" lengthAdjust="spacing" textLength="97.3164" x="70.0473" y="208.5167">LancerCalculs</text><line style="stroke:#181818;stroke-width:0.5;" x1="23.3" x2="184.7023" y1="219.67" y2="219.67"/><ellipse cx="33.3" cy="233.3184" fill="none" rx="3" ry="3" style="stroke:#038048;stroke-width:1;"/><text fill="#000000" font-family="sans-serif" font-size="14" lengthAdjust="spacing" text-decoration="underline" textLength="85.0391" x="42.3" y="236.6651">laby : String</text><line style="stroke:#181818;stroke-width:0.5;" x1="23.3" x2="184.7023" y1="243.9669" y2="243.9669"/><ellipse cx="33.3" cy="257.6153" fill="#84BE84" rx="3" ry="3" style="stroke:#038048;stroke-width:1;"/><text fill="#000000" font-family="sans-serif" font-size="14" lengthAdjust="spacing" text-decoration="underline" textLength="137.4023" x="42.3" y="260.962">main(String[]): void</text><ellipse cx="33.3" cy="273.9122" fill="#84BE84" rx="3" ry="3" style="stroke:#038048;stroke-width:1;"/><text fill="#000000" font-family="sans-serif" font-size="14" lengthAdjust="spacing" text-decoration="underline" textLength="71.8594" x="42.3" y="277.2589">init(): void</text><ellipse cx="33.3" cy="290.2091" fill="#84BE84" rx="3" ry="3" style="stroke:#038048;stroke-width:1;"/><text fill="#000000" font-family="sans-serif" font-size="14" lengthAdjust="spacing" text-decoration="underline" textLength="125.1592" x="42.3" y="293.5557">initSansDS(): void</text></g><!--class LancerAnalyse--><g class="entity" data-entity="LancerAnalyse" data-source-line="9" data-uid="ent0004" id="entity_LancerAnalyse"><rect fill="#F1F1F1" height="406.5313" rx="2.5" ry="2.5" style="stroke:#181818;stroke-width:0.5;" width="436.6826" x="220.66" y="41"/><ellipse cx="383.5365" cy="57" fill="#ADD1B2" rx="11" ry="11" style="stroke:#181818;stroke-width:1;"/><path d="M386.5052,62.6406 Q385.9271,62.9375 385.2865,63.0781 Q384.6458,63.2344 383.9427,63.2344 Q381.4427,63.2344 380.1146,61.5938 Q378.8021,59.9375 378.8021,56.8125 Q378.8021,53.6875 380.1146,52.0313 Q381.4427,50.375 383.9427,50.375 Q384.6458,50.375 385.2865,50.5313 Q385.9427,50.6875 386.5052,50.9844 L386.5052,53.7031 Q385.8802,53.125 385.2865,52.8594 Q384.6927,52.5781 384.0677,52.5781 Q382.724,52.5781 382.0365,53.6563 Q381.349,54.7188 381.349,56.8125 Q381.349,58.9063 382.0365,59.9844 Q382.724,61.0469 384.0677,61.0469 Q384.6927,61.0469 385.2865,60.7813 Q385.8802,60.5 386.5052,59.9219 L386.5052,62.6406 Z " fill="#000000"/><text fill="#000000" font-family="sans-serif" font-size="14" lengthAdjust="spacing" textLength="102.4297" x="404.0365" y="61.8467">LancerAnalyse</text><line style="stroke:#181818;stroke-width:0.5;" x1="221.66" x2="656.3426" y1="73" y2="73"/><rect fill="none" height="6" style="stroke:#C82930;stroke-width:1;" width="6" x="228.66" y="83.6484"/><text fill="#000000" font-family="sans-serif" font-size="14" lengthAdjust="spacing" textLength="118.3164" x="240.66" y="89.9951">etreFini: boolean</text><text fill="#000000" font-family="sans-serif" font-size="14" lengthAdjust="spacing" textLength="228.915" x="240.66" y="106.292">_ observateurs: List&lt;DessinJeu&gt;</text><rect fill="none" height="6" style="stroke:#C82930;stroke-width:1;" width="6" x="228.66" y="116.2422"/><text fill="#000000" font-family="sans-serif" font-size="14" lengthAdjust="spacing" textLength="154.1025" x="240.66" y="122.5889">nbVictoireGardien: int</text><rect fill="none" height="6" style="stroke:#C82930;stroke-width:1;" width="6" x="228.66" y="132.5391"/><text fill="#000000" font-family="sans-serif" font-size="14" lengthAdjust="spacing" textLength="168.6084" x="240.66" y="138.8857">nbVictoirePrisonnier: int</text><rect fill="none" height="6" style="stroke:#C82930;stroke-width:1;" width="6" x="228.66" y="148.8359"/><text fill="#000000" font-family="sans-serif" font-size="14" lengthAdjust="spacing" textLength="98.8203" x="240.66" y="155.1826">matchNull: int</text><rect fill="none" height="6" style="stroke:#C82930;stroke-width:1;" width="6" x="228.66" y="165.1328"/><text fill="#000000" font-family="sans-serif" font-size="14" lengthAdjust="spacing" textLength="169.0869" x="240.66" y="171.4795">nbIterationCourante: int</text><rect fill="none" height="6" style="stroke:#C82930;stroke-width:1;" width="6" x="228.66" y="181.4297"/><text fill="#000000" font-family="sans-serif" font-size="14" lengthAdjust="spacing" textLength="177.5225" x="240.66" y="187.7764">nbDeplacementPerso: int</text><rect fill="none" height="6" style="stroke:#C82930;stroke-width:1;" width="6" x="228.66" y="197.7266"/><text fill="#000000" font-family="sans-serif" font-size="14" lengthAdjust="spacing" textLength="309.9346" x="240.66" y="204.0732">historiqueDeplacementPerso: List&lt;Integer&gt;</text><rect fill="none" height="6" style="stroke:#C82930;stroke-width:1;" width="6" x="228.66" y="214.0234"/><text fill="#000000" font-family="sans-serif" font-size="14" lengthAdjust="spacing" textLength="168.123" x="240.66" y="220.3701">casesVisitees: HashMap</text><rect fill="none" height="6" style="stroke:#C82930;stroke-width:1;" width="6" x="228.66" y="230.3203"/><text fill="#000000" font-family="sans-serif" font-size="14" lengthAdjust="spacing" textLength="238.0752" x="240.66" y="236.667">casesVisiteesPrisonnier: HashMap</text><rect fill="none" height="6" style="stroke:#C82930;stroke-width:1;" width="6" x="228.66" y="246.6172"/><text fill="#000000" font-family="sans-serif" font-size="14" lengthAdjust="spacing" textLength="223.5693" x="240.66" y="252.9639">casesVisiteesGardien: HashMap</text><rect fill="none" height="6" style="stroke:#C82930;stroke-width:1;" width="6" x="228.66" y="262.9141"/><text fill="#000000" font-family="sans-serif" font-size="14" lengthAdjust="spacing" textLength="139.6377" x="240.66" y="269.2607">nbIterationTotal: int</text><rect fill="none" height="6" style="stroke:#C82930;stroke-width:1;" width="6" x="228.66" y="279.2109"/><text fill="#000000" font-family="sans-serif" font-size="14" lengthAdjust="spacing" textLength="107.3857" x="240.66" y="285.5576">pause: boolean</text><rect fill="none" height="6" style="stroke:#C82930;stroke-width:1;" width="6" x="228.66" y="295.5078"/><text fill="#000000" font-family="sans-serif" font-size="14" lengthAdjust="spacing" textLength="324.6797" x="240.66" y="301.8545">casesDepartPris: HashMap&lt;Position, Integer&gt;</text><rect fill="none" height="6" style="stroke:#C82930;stroke-width:1;" width="6" x="228.66" y="311.8047"/><text fill="#000000" font-family="sans-serif" font-size="14" lengthAdjust="spacing" textLength="333.3682" x="240.66" y="318.1514">casesDepartGard: HashMap&lt;Position, Integer&gt;</text><line style="stroke:#181818;stroke-width:0.5;" x1="221.66" x2="656.3426" y1="325.4531" y2="325.4531"/><ellipse cx="231.66" cy="339.1016" fill="#84BE84" rx="3" ry="3" style="stroke:#038048;stroke-width:1;"/><text fill="#000000" font-family="sans-serif" font-size="14" lengthAdjust="spacing" textLength="113.3535" x="240.66" y="342.4482">LancerAnalyse()</text><ellipse cx="231.66" cy="355.3984" fill="#84BE84" rx="3" ry="3" style="stroke:#038048;stroke-width:1;"/><text fill="#000000" font-family="sans-serif" font-size="14" lengthAdjust="spacing" textLength="410.6826" x="240.66" y="358.7451">lancerAnalyse(int, Comportements, Comportements): void</text><ellipse cx="231.66" cy="371.6953" fill="#84BE84" rx="3" ry="3" style="stroke:#038048;stroke-width:1;"/><text fill="#000000" font-family="sans-serif" font-size="14" lengthAdjust="spacing" textLength="129.2402" x="240.66" y="375.042">etreFini(): boolean</text><rect fill="#F24D5C" height="6" style="stroke:#C82930;stroke-width:1;" width="6" x="228.66" y="384.9922"/><text fill="#000000" font-family="sans-serif" font-size="14" lengthAdjust="spacing" textLength="368.1563" x="240.66" y="391.3389">updateCasesVisiteesPrisonnier(List&lt;Position&gt;): void</text><rect fill="#F24D5C" height="6" style="stroke:#C82930;stroke-width:1;" width="6" x="228.66" y="401.2891"/><text fill="#000000" font-family="sans-serif" font-size="14" lengthAdjust="spacing" textLength="353.6504" x="240.66" y="407.6357">updateCasesVisiteesGardien(List&lt;Position&gt;): void</text><ellipse cx="231.66" cy="420.5859" fill="#84BE84" rx="3" ry="3" style="stroke:#038048;stroke-width:1;"/><text fill="#000000" font-family="sans-serif" font-size="14" lengthAdjust="spacing" textLength="128.1396" x="240.66" y="423.9326">reinitialiser(): void</text><ellipse cx="231.66" cy="436.8828" fill="#84BE84" rx="3" ry="3" style="stroke:#038048;stroke-width:1;"/><text fill="#000000" font-family="sans-serif" font-size="14" lengthAdjust="spacing" textLength="244.2686" x="240.66" y="440.2295">{synchronized} isPause(): boolean</text></g><!--class LancerCalculsChemins--><g class="entity" data-entity="LancerCalculsChemins" data-source-line="33" data-uid="ent0005" id="entity_LancerCalculsChemins"><rect fill="#F1F1F1" height="64.2969" rx="2.5" ry="2.5" style="stroke:#181818;stroke-width:0.5;" width="190.2725" x="691.86" y="212.12"/><ellipse cx="706.86" cy="228.12" fill="#ADD1B2" rx="11" ry="11" style="stroke:#181818;stroke-width:1;"/><path d="M709.8288,233.7606 Q709.2506,234.0575 708.61,234.1981 Q707.9694,234.3544 707.2663,234.3544 Q704.7663,234.3544 703.4381,232.7138 Q702.1256,231.0575 702.1256,227.9325 Q702.1256,224.8075 703.4381,223.1513 Q704.7663,221.495 707.2663,221.495 Q707.9694,221.495 708.61,221.6513 Q709.2663,221.8075 709.8288,222.1044 L709.8288,224.8231 Q709.2038,224.245 708.61,223.9794 Q708.0163,223.6981 707.3913,223.6981 Q706.0475,223.6981 705.36,224.7763 Q704.6725,225.8388 704.6725,227.9325 Q704.6725,230.0263 705.36,231.1044 Q706.0475,232.1669 707.3913,232.1669 Q708.0163,232.1669 708.61,231.9013 Q709.2038,231.62 709.8288,231.0419 L709.8288,233.7606 Z " fill="#000000"/><text fill="#000000" font-family="sans-serif" font-size="14" lengthAdjust="spacing" textLength="158.2725" x="720.86" y="232.9667">LancerCalculsChemins</text><line style="stroke:#181818;stroke-width:0.5;" x1="692.86" x2="881.1325" y1="244.12" y2="244.12"/><line style="stroke:#181818;stroke-width:0.5;" x1="692.86" x2="881.1325" y1="252.12" y2="252.12"/><ellipse cx="702.86" cy="265.7684" fill="#84BE84" rx="3" ry="3" style="stroke:#038048;stroke-width:1;"/><text fill="#000000" font-family="sans-serif" font-size="14" lengthAdjust="spacing" text-decoration="underline" textLength="137.4023" x="711.86" y="269.1151">main(String[]): void</text></g><!--class LancerCalculsVision--><g class="entity" data-entity="LancerCalculsVision" data-source-line="36" data-uid="ent0006" id="entity_LancerCalculsVision"><rect fill="#F1F1F1" height="64.2969" rx="2.5" ry="2.5" style="stroke:#181818;stroke-width:0.5;" width="171.4053" x="62.3" y="523.83"/><ellipse cx="77.3" cy="539.83" fill="#ADD1B2" rx="11" ry="11" style="stroke:#181818;stroke-width:1;"/><path d="M80.2688,545.4706 Q79.6906,545.7675 79.05,545.9081 Q78.4094,546.0644 77.7063,546.0644 Q75.2063,546.0644 73.8781,544.4238 Q72.5656,542.7675 72.5656,539.6425 Q72.5656,536.5175 73.8781,534.8613 Q75.2063,533.205 77.7063,533.205 Q78.4094,533.205 79.05,533.3613 Q79.7063,533.5175 80.2688,533.8144 L80.2688,536.5331 Q79.6438,535.955 79.05,535.6894 Q78.4563,535.4081 77.8313,535.4081 Q76.4875,535.4081 75.8,536.4863 Q75.1125,537.5488 75.1125,539.6425 Q75.1125,541.7363 75.8,542.8144 Q76.4875,543.8769 77.8313,543.8769 Q78.4563,543.8769 79.05,543.6113 Q79.6438,543.33 80.2688,542.7519 L80.2688,545.4706 Z " fill="#000000"/><text fill="#000000" font-family="sans-serif" font-size="14" lengthAdjust="spacing" textLength="139.4053" x="91.3" y="544.6767">LancerCalculsVision</text><line style="stroke:#181818;stroke-width:0.5;" x1="63.3" x2="232.7053" y1="555.83" y2="555.83"/><line style="stroke:#181818;stroke-width:0.5;" x1="63.3" x2="232.7053" y1="563.83" y2="563.83"/><ellipse cx="73.3" cy="577.4784" fill="#84BE84" rx="3" ry="3" style="stroke:#038048;stroke-width:1;"/><text fill="#000000" font-family="sans-serif" font-size="14" lengthAdjust="spacing" text-decoration="underline" textLength="137.4023" x="82.3" y="580.8251">main(String[]): void</text></g><!--class LancerCalculsDatasetArbreCNN--><g class="entity" data-entity="LancerCalculsDatasetArbreCNN" data-source-line="39" data-uid="ent0007" id="entity_LancerCalculsDatasetArbreCNN"><rect fill="#F1F1F1" height="64.2969" rx="2.5" ry="2.5" style="stroke:#181818;stroke-width:0.5;" width="253.4502" x="268.27" y="523.83"/><ellipse cx="283.27" cy="539.83" fill="#ADD1B2" rx="11" ry="11" style="stroke:#181818;stroke-width:1;"/><path d="M286.2388,545.4706 Q285.6606,545.7675 285.02,545.9081 Q284.3794,546.0644 283.6763,546.0644 Q281.1763,546.0644 279.8481,544.4238 Q278.5356,542.7675 278.5356,539.6425 Q278.5356,536.5175 279.8481,534.8613 Q281.1763,533.205 283.6763,533.205 Q284.3794,533.205 285.02,533.3613 Q285.6763,533.5175 286.2388,533.8144 L286.2388,536.5331 Q285.6138,535.955 285.02,535.6894 Q284.4263,535.4081 283.8013,535.4081 Q282.4575,535.4081 281.77,536.4863 Q281.0825,537.5488 281.0825,539.6425 Q281.0825,541.7363 281.77,542.8144 Q282.4575,543.8769 283.8013,543.8769 Q284.4263,543.8769 285.02,543.6113 Q285.6138,543.33 286.2388,542.7519 L286.2388,545.4706 Z " fill="#000000"/><text fill="#000000" font-family="sans-serif" font-size="14" lengthAdjust="spacing" textLength="221.4502" x="297.27" y="544.6767">LancerCalculsDatasetArbreCNN</text><line style="stroke:#181818;stroke-width:0.5;" x1="269.27" x2="520.7202" y1="555.83" y2="555.83"/><line style="stroke:#181818;stroke-width:0.5;" x1="269.27" x2="520.7202" y1="563.83" y2="563.83"/><ellipse cx="279.27" cy="577.4784" fill="#84BE84" rx="3" ry="3" style="stroke:#038048;stroke-width:1;"/><text fill="#000000" font-family="sans-serif" font-size="14" lengthAdjust="spacing" text-decoration="underline" textLength="96.5029" x="288.27" y="580.8251">launch(): void</text></g><!--class LancerCalculsDatasetArbreMLP--><g class="entity" data-entity="LancerCalculsDatasetArbreMLP" data-source-line="42" data-uid="ent0008" id="entity_LancerCalculsDatasetArbreMLP"><rect fill="#F1F1F1" height="64.2969" rx="2.5" ry="2.5" style="stroke:#181818;stroke-width:0.5;" width="251.0508" x="556.47" y="523.83"/><ellipse cx="571.47" cy="539.83" fill="#ADD1B2" rx="11" ry="11" style="stroke:#181818;stroke-width:1;"/><path d="M574.4388,545.4706 Q573.8606,545.7675 573.22,545.9081 Q572.5794,546.0644 571.8763,546.0644 Q569.3763,546.0644 568.0481,544.4238 Q566.7356,542.7675 566.7356,539.6425 Q566.7356,536.5175 568.0481,534.8613 Q569.3763,533.205 571.8763,533.205 Q572.5794,533.205 573.22,533.3613 Q573.8763,533.5175 574.4388,533.8144 L574.4388,536.5331 Q573.8138,535.955 573.22,535.6894 Q572.6263,535.4081 572.0013,535.4081 Q570.6575,535.4081 569.97,536.4863 Q569.2825,537.5488 569.2825,539.6425 Q569.2825,541.7363 569.97,542.8144 Q570.6575,543.8769 572.0013,543.8769 Q572.6263,543.8769 573.22,543.6113 Q573.8138,543.33 574.4388,542.7519 L574.4388,545.4706 Z " fill="#000000"/><text fill="#000000" font-family="sans-serif" font-size="14" lengthAdjust="spacing" textLength="219.0508" x="585.47" y="544.6767">LancerCalculsDatasetArbreMLP</text><line style="stroke:#181818;stroke-width:0.5;" x1="557.47" x2="806.5208" y1="555.83" y2="555.83"/><line style="stroke:#181818;stroke-width:0.5;" x1="557.47" x2="806.5208" y1="563.83" y2="563.83"/><ellipse cx="567.47" cy="577.4784" fill="#84BE84" rx="3" ry="3" style="stroke:#038048;stroke-width:1;"/><text fill="#000000" font-family="sans-serif" font-size="14" lengthAdjust="spacing" text-decoration="underline" textLength="96.5029" x="576.47" y="580.8251">launch(): void</text></g><!--class LancerCalculsDatasetQLearning--><g class="entity" data-entity="LancerCalculsDatasetQLearning" data-source-line="45" data-uid="ent0009" id="entity_LancerCalculsDatasetQLearning"><rect fill="#F1F1F1" height="64.2969" rx="2.5" ry="2.5" style="stroke:#181818;stroke-width:0.5;" width="332.9473" x="21.53" y="664.42"/><ellipse cx="71.5383" cy="680.42" fill="#ADD1B2" rx="11" ry="11" style="stroke:#181818;stroke-width:1;"/><path d="M74.5071,686.0606 Q73.9289,686.3575 73.2883,686.4981 Q72.6477,686.6544 71.9446,686.6544 Q69.4446,686.6544 68.1164,685.0138 Q66.8039,683.3575 66.8039,680.2325 Q66.8039,677.1075 68.1164,675.4513 Q69.4446,673.795 71.9446,673.795 Q72.6477,673.795 73.2883,673.9513 Q73.9446,674.1075 74.5071,674.4044 L74.5071,677.1231 Q73.8821,676.545 73.2883,676.2794 Q72.6946,675.9981 72.0696,675.9981 Q70.7258,675.9981 70.0383,677.0763 Q69.3508,678.1388 69.3508,680.2325 Q69.3508,682.3263 70.0383,683.4044 Q70.7258,684.4669 72.0696,684.4669 Q72.6946,684.4669 73.2883,684.2013 Q73.8821,683.92 74.5071,683.3419 L74.5071,686.0606 Z " fill="#000000"/><text fill="#000000" font-family="sans-serif" font-size="14" lengthAdjust="spacing" textLength="224.4307" x="92.0383" y="685.2667">LancerCalculsDatasetQLearning</text><line style="stroke:#181818;stroke-width:0.5;" x1="22.53" x2="353.4773" y1="696.42" y2="696.42"/><line style="stroke:#181818;stroke-width:0.5;" x1="22.53" x2="353.4773" y1="704.42" y2="704.42"/><ellipse cx="32.53" cy="718.0684" fill="#84BE84" rx="3" ry="3" style="stroke:#038048;stroke-width:1;"/><text fill="#000000" font-family="sans-serif" font-size="14" lengthAdjust="spacing" text-decoration="underline" textLength="306.9473" x="41.53" y="721.4151">launch(ReseauDeNeuronesQLearning): void</text></g><!--class ChargementCarte--><g class="entity" data-entity="ChargementCarte" data-source-line="50" data-uid="ent0011" id="entity_ChargementCarte"><rect fill="#F1F1F1" height="64.2969" rx="2.5" ry="2.5" style="stroke:#181818;stroke-width:0.5;" width="182.1328" x="937.93" y="212.12"/><ellipse cx="964.1005" cy="228.12" fill="#ADD1B2" rx="11" ry="11" style="stroke:#181818;stroke-width:1;"/><path d="M967.0692,233.7606 Q966.4911,234.0575 965.8505,234.1981 Q965.2098,234.3544 964.5067,234.3544 Q962.0067,234.3544 960.6786,232.7138 Q959.3661,231.0575 959.3661,227.9325 Q959.3661,224.8075 960.6786,223.1513 Q962.0067,221.495 964.5067,221.495 Q965.2098,221.495 965.8505,221.6513 Q966.5067,221.8075 967.0692,222.1044 L967.0692,224.8231 Q966.4442,224.245 965.8505,223.9794 Q965.2567,223.6981 964.6317,223.6981 Q963.288,223.6981 962.6005,224.7763 Q961.913,225.8388 961.913,227.9325 Q961.913,230.0263 962.6005,231.1044 Q963.288,232.1669 964.6317,232.1669 Q965.2567,232.1669 965.8505,231.9013 Q966.4442,231.62 967.0692,231.0419 L967.0692,233.7606 Z " fill="#000000"/><text fill="#000000" font-family="sans-serif" font-size="14" lengthAdjust="spacing" textLength="125.3096" x="980.5828" y="232.9667">ChargementCarte</text><line style="stroke:#181818;stroke-width:0.5;" x1="938.93" x2="1119.0628" y1="244.12" y2="244.12"/><line style="stroke:#181818;stroke-width:0.5;" x1="938.93" x2="1119.0628" y1="252.12" y2="252.12"/><ellipse cx="948.93" cy="265.7684" fill="#84BE84" rx="3" ry="3" style="stroke:#038048;stroke-width:1;"/><text fill="#000000" font-family="sans-serif" font-size="14" lengthAdjust="spacing" text-decoration="underline" textLength="156.1328" x="957.93" y="269.1151">charger(String): int[][]</text></g><!--class Outil--><g class="entity" data-entity="Outil" data-source-line="53" data-uid="ent0012" id="entity_Outil"><rect fill="#F1F1F1" height="178.375" rx="2.5" ry="2.5" style="stroke:#181818;stroke-width:0.5;" width="339.6191" x="1155.19" y="155.08"/><ellipse cx="1304.169" cy="171.08" fill="#ADD1B2" rx="11" ry="11" style="stroke:#181818;stroke-width:1;"/><path d="M1307.1378,176.7206 Q1306.5596,177.0175 1305.919,177.1581 Q1305.2784,177.3144 1304.5753,177.3144 Q1302.0753,177.3144 1300.7471,175.6738 Q1299.4346,174.0175 1299.4346,170.8925 Q1299.4346,167.7675 1300.7471,166.1113 Q1302.0753,164.455 1304.5753,164.455 Q1305.2784,164.455 1305.919,164.6113 Q1306.5753,164.7675 1307.1378,165.0644 L1307.1378,167.7831 Q1306.5128,167.205 1305.919,166.9394 Q1305.3253,166.6581 1304.7003,166.6581 Q1303.3565,166.6581 1302.669,167.7363 Q1301.9815,168.7988 1301.9815,170.8925 Q1301.9815,172.9863 1302.669,174.0644 Q1303.3565,175.1269 1304.7003,175.1269 Q1305.3253,175.1269 1305.919,174.8613 Q1306.5128,174.58 1307.1378,174.0019 L1307.1378,176.7206 Z " fill="#000000"/><text fill="#000000" font-family="sans-serif" font-size="14" lengthAdjust="spacing" textLength="33.1611" x="1324.669" y="175.9267">Outil</text><line style="stroke:#181818;stroke-width:0.5;" x1="1156.19" x2="1493.8091" y1="187.08" y2="187.08"/><line style="stroke:#181818;stroke-width:0.5;" x1="1156.19" x2="1493.8091" y1="195.08" y2="195.08"/><ellipse cx="1166.19" cy="208.7284" fill="#84BE84" rx="3" ry="3" style="stroke:#038048;stroke-width:1;"/><text fill="#000000" font-family="sans-serif" font-size="14" lengthAdjust="spacing" text-decoration="underline" textLength="256.3066" x="1175.19" y="212.0751">applatissement(double[][]): double[]</text><ellipse cx="1166.19" cy="225.0253" fill="#84BE84" rx="3" ry="3" style="stroke:#038048;stroke-width:1;"/><text fill="#000000" font-family="sans-serif" font-size="14" lengthAdjust="spacing" textLength="238.5195" x="1175.19" y="228.372">conversionIntFloat(int[][]):float[][]</text><ellipse cx="1166.19" cy="241.3222" fill="#84BE84" rx="3" ry="3" style="stroke:#038048;stroke-width:1;"/><text fill="#000000" font-family="sans-serif" font-size="14" lengthAdjust="spacing" textLength="299.0996" x="1175.19" y="244.6689">conversionDoubleFloat(double[][]):float[][]</text><ellipse cx="1166.19" cy="257.6191" fill="#84BE84" rx="3" ry="3" style="stroke:#038048;stroke-width:1;"/><text fill="#000000" font-family="sans-serif" font-size="14" lengthAdjust="spacing" textLength="277.252" x="1175.19" y="260.9657">conversionDoubleFloat(double[]):float[]</text><ellipse cx="1166.19" cy="273.9159" fill="#84BE84" rx="3" ry="3" style="stroke:#038048;stroke-width:1;"/><text fill="#000000" font-family="sans-serif" font-size="14" lengthAdjust="spacing" text-decoration="underline" textLength="191.5771" x="1175.19" y="277.2626">afficher_tab(double[]): void</text><ellipse cx="1166.19" cy="290.2128" fill="#84BE84" rx="3" ry="3" style="stroke:#038048;stroke-width:1;"/><text fill="#000000" font-family="sans-serif" font-size="14" lengthAdjust="spacing" text-decoration="underline" textLength="223.8154" x="1175.19" y="293.5595">afficher_doubleTab(int[][]): void</text><ellipse cx="1166.19" cy="306.5097" fill="#84BE84" rx="3" ry="3" style="stroke:#038048;stroke-width:1;"/><text fill="#000000" font-family="sans-serif" font-size="14" lengthAdjust="spacing" text-decoration="underline" textLength="220.5137" x="1175.19" y="309.8564">doubleToFloat(double[]): float[]</text><ellipse cx="1166.19" cy="322.8066" fill="#84BE84" rx="3" ry="3" style="stroke:#038048;stroke-width:1;"/><text fill="#000000" font-family="sans-serif" font-size="14" lengthAdjust="spacing" text-decoration="underline" textLength="313.6191" x="1175.19" y="326.1532">concatener_tab(double[],double[] ): double[]</text></g><!--class DataCollector--><g class="entity" data-entity="DataCollector" data-source-line="63" data-uid="ent0013" id="entity_DataCollector"><rect fill="#F1F1F1" height="96.8906" rx="2.5" ry="2.5" style="stroke:#181818;stroke-width:0.5;" width="519.3428" x="938.33" y="507.53"/><ellipse cx="1145.9169" cy="523.53" fill="#ADD1B2" rx="11" ry="11" style="stroke:#181818;stroke-width:1;"/><path d="M1148.8857,529.1706 Q1148.3075,529.4675 1147.6669,529.6081 Q1147.0263,529.7644 1146.3232,529.7644 Q1143.8232,529.7644 1142.495,528.1238 Q1141.1825,526.4675 1141.1825,523.3425 Q1141.1825,520.2175 1142.495,518.5613 Q1143.8232,516.905 1146.3232,516.905 Q1147.0263,516.905 1147.6669,517.0613 Q1148.3232,517.2175 1148.8857,517.5144 L1148.8857,520.2331 Q1148.2607,519.655 1147.6669,519.3894 Q1147.0732,519.1081 1146.4482,519.1081 Q1145.1044,519.1081 1144.4169,520.1863 Q1143.7294,521.2488 1143.7294,523.3425 Q1143.7294,525.4363 1144.4169,526.5144 Q1145.1044,527.5769 1146.4482,527.5769 Q1147.0732,527.5769 1147.6669,527.3113 Q1148.2607,527.03 1148.8857,526.4519 L1148.8857,529.1706 Z " fill="#000000"/><text fill="#000000" font-family="sans-serif" font-size="14" lengthAdjust="spacing" textLength="95.6689" x="1166.4169" y="528.3767">DataCollector</text><line style="stroke:#181818;stroke-width:0.5;" x1="939.33" x2="1456.6728" y1="539.53" y2="539.53"/><line style="stroke:#181818;stroke-width:0.5;" x1="939.33" x2="1456.6728" y1="547.53" y2="547.53"/><ellipse cx="949.33" cy="561.1784" fill="#84BE84" rx="3" ry="3" style="stroke:#038048;stroke-width:1;"/><text fill="#000000" font-family="sans-serif" font-size="14" lengthAdjust="spacing" text-decoration="underline" textLength="343.2598" x="958.33" y="564.5251">saveDataMLP(double[], double, double, int): void</text><ellipse cx="949.33" cy="577.4753" fill="#84BE84" rx="3" ry="3" style="stroke:#038048;stroke-width:1;"/><text fill="#000000" font-family="sans-serif" font-size="14" lengthAdjust="spacing" text-decoration="underline" textLength="493.3428" x="958.33" y="580.822">saveDataCNN(double[], double, double, double[], double, String): void</text><ellipse cx="949.33" cy="593.7722" fill="#84BE84" rx="3" ry="3" style="stroke:#038048;stroke-width:1;"/><text fill="#000000" font-family="sans-serif" font-size="14" lengthAdjust="spacing" text-decoration="underline" textLength="223.6035" x="958.33" y="597.1189">etiquettage(String, String): void</text></g><!--class CSVDataset--><g class="entity" data-entity="CSVDataset" data-source-line="68" data-uid="ent0014" id="entity_CSVDataset"><rect fill="#F1F1F1" height="48" rx="2.5" ry="2.5" style="stroke:#181818;stroke-width:0.5;" width="115.0635" x="1782.47" y="531.98"/><ellipse cx="1797.47" cy="547.98" fill="#B4A7E5" rx="11" ry="11" style="stroke:#181818;stroke-width:1;"/><path d="M1793.3919,543.7456 L1793.3919,541.5894 L1800.7825,541.5894 L1800.7825,543.7456 L1798.3138,543.7456 L1798.3138,551.8238 L1800.7825,551.8238 L1800.7825,553.98 L1793.3919,553.98 L1793.3919,551.8238 L1795.8606,551.8238 L1795.8606,543.7456 L1793.3919,543.7456 Z " fill="#000000"/><text fill="#000000" font-family="sans-serif" font-size="14" font-style="italic" lengthAdjust="spacing" textLength="83.0635" x="1811.47" y="552.8267">CSVDataset</text><line style="stroke:#181818;stroke-width:0.5;" x1="1783.47" x2="1896.5335" y1="563.98" y2="563.98"/><line style="stroke:#181818;stroke-width:0.5;" x1="1783.47" x2="1896.5335" y1="571.98" y2="571.98"/></g><!--class CSVDatasetCNN--><g class="entity" data-entity="CSVDatasetCNN" data-source-line="71" data-uid="ent0015" id="entity_CSVDatasetCNN"><rect fill="#F1F1F1" height="162.0781" rx="2.5" ry="2.5" style="stroke:#181818;stroke-width:0.5;" width="292.8271" x="1529.59" y="163.23"/><ellipse cx="1614.8615" cy="179.23" fill="#ADD1B2" rx="11" ry="11" style="stroke:#181818;stroke-width:1;"/><path d="M1617.8302,184.8706 Q1617.2521,185.1675 1616.6115,185.3081 Q1615.9709,185.4644 1615.2677,185.4644 Q1612.7677,185.4644 1611.4396,183.8238 Q1610.1271,182.1675 1610.1271,179.0425 Q1610.1271,175.9175 1611.4396,174.2613 Q1612.7677,172.605 1615.2677,172.605 Q1615.9709,172.605 1616.6115,172.7613 Q1617.2677,172.9175 1617.8302,173.2144 L1617.8302,175.9331 Q1617.2052,175.355 1616.6115,175.0894 Q1616.0177,174.8081 1615.3927,174.8081 Q1614.049,174.8081 1613.3615,175.8863 Q1612.674,176.9488 1612.674,179.0425 Q1612.674,181.1363 1613.3615,182.2144 Q1614.049,183.2769 1615.3927,183.2769 Q1616.0177,183.2769 1616.6115,183.0113 Q1617.2052,182.73 1617.8302,182.1519 L1617.8302,184.8706 Z " fill="#000000"/><text fill="#000000" font-family="sans-serif" font-size="14" lengthAdjust="spacing" textLength="113.7842" x="1635.3615" y="184.0767">CSVDatasetCNN</text><line style="stroke:#181818;stroke-width:0.5;" x1="1530.59" x2="1821.4171" y1="195.23" y2="195.23"/><rect fill="none" height="6" style="stroke:#C82930;stroke-width:1;" width="6" x="1537.59" y="205.8784"/><text fill="#000000" font-family="sans-serif" font-size="14" lengthAdjust="spacing" textLength="266.8271" x="1549.59" y="212.2251">{final} csvRecords: List&lt;CSVRecord&gt;</text><line style="stroke:#181818;stroke-width:0.5;" x1="1530.59" x2="1821.4171" y1="219.5269" y2="219.5269"/><ellipse cx="1540.59" cy="233.1753" fill="#84BE84" rx="3" ry="3" style="stroke:#038048;stroke-width:1;"/><text fill="#000000" font-family="sans-serif" font-size="14" lengthAdjust="spacing" textLength="174.2207" x="1549.59" y="236.522">CSVDatasetCNN(Builder)</text><ellipse cx="1540.59" cy="249.4722" fill="#84BE84" rx="3" ry="3" style="stroke:#038048;stroke-width:1;"/><text fill="#000000" font-family="sans-serif" font-size="14" lengthAdjust="spacing" textLength="214.0605" x="1549.59" y="252.8189">get(NDManager, long): Record</text><ellipse cx="1540.59" cy="265.7691" fill="#84BE84" rx="3" ry="3" style="stroke:#038048;stroke-width:1;"/><text fill="#000000" font-family="sans-serif" font-size="14" lengthAdjust="spacing" textLength="142.2354" x="1549.59" y="269.1157">availableSize(): long</text><ellipse cx="1540.59" cy="282.0659" fill="#84BE84" rx="3" ry="3" style="stroke:#038048;stroke-width:1;"/><text fill="#000000" font-family="sans-serif" font-size="14" lengthAdjust="spacing" textLength="172.9219" x="1549.59" y="285.4126">parseMap(String): float[]</text><ellipse cx="1540.59" cy="298.3628" fill="#84BE84" rx="3" ry="3" style="stroke:#038048;stroke-width:1;"/><text fill="#000000" font-family="sans-serif" font-size="14" lengthAdjust="spacing" textLength="165.416" x="1549.59" y="301.7095">prepare(Progress): void</text><ellipse cx="1540.59" cy="314.6597" fill="#84BE84" rx="3" ry="3" style="stroke:#038048;stroke-width:1;"/><text fill="#000000" font-family="sans-serif" font-size="14" lengthAdjust="spacing" text-decoration="underline" textLength="118.3984" x="1549.59" y="318.0064">builder(): Builder</text></g><!--class CSVDatasetMLP--><g class="entity" data-entity="CSVDatasetMLP" data-source-line="80" data-uid="ent0016" id="entity_CSVDatasetMLP"><rect fill="#F1F1F1" height="162.0781" rx="2.5" ry="2.5" style="stroke:#181818;stroke-width:0.5;" width="292.8271" x="1857.59" y="163.23"/><ellipse cx="1944.0612" cy="179.23" fill="#ADD1B2" rx="11" ry="11" style="stroke:#181818;stroke-width:1;"/><path d="M1947.0299,184.8706 Q1946.4518,185.1675 1945.8112,185.3081 Q1945.1706,185.4644 1944.4674,185.4644 Q1941.9674,185.4644 1940.6393,183.8238 Q1939.3268,182.1675 1939.3268,179.0425 Q1939.3268,175.9175 1940.6393,174.2613 Q1941.9674,172.605 1944.4674,172.605 Q1945.1706,172.605 1945.8112,172.7613 Q1946.4674,172.9175 1947.0299,173.2144 L1947.0299,175.9331 Q1946.4049,175.355 1945.8112,175.0894 Q1945.2174,174.8081 1944.5924,174.8081 Q1943.2487,174.8081 1942.5612,175.8863 Q1941.8737,176.9488 1941.8737,179.0425 Q1941.8737,181.1363 1942.5612,182.2144 Q1943.2487,183.2769 1944.5924,183.2769 Q1945.2174,183.2769 1945.8112,183.0113 Q1946.4049,182.73 1947.0299,182.1519 L1947.0299,184.8706 Z " fill="#000000"/><text fill="#000000" font-family="sans-serif" font-size="14" lengthAdjust="spacing" textLength="111.3848" x="1964.5612" y="184.0767">CSVDatasetMLP</text><line style="stroke:#181818;stroke-width:0.5;" x1="1858.59" x2="2149.4171" y1="195.23" y2="195.23"/><rect fill="none" height="6" style="stroke:#C82930;stroke-width:1;" width="6" x="1865.59" y="205.8784"/><text fill="#000000" font-family="sans-serif" font-size="14" lengthAdjust="spacing" textLength="266.8271" x="1877.59" y="212.2251">{final} csvRecords: List&lt;CSVRecord&gt;</text><line style="stroke:#181818;stroke-width:0.5;" x1="1858.59" x2="2149.4171" y1="219.5269" y2="219.5269"/><ellipse cx="1868.59" cy="233.1753" fill="#84BE84" rx="3" ry="3" style="stroke:#038048;stroke-width:1;"/><text fill="#000000" font-family="sans-serif" font-size="14" lengthAdjust="spacing" textLength="171.8213" x="1877.59" y="236.522">CSVDatasetMLP(Builder)</text><ellipse cx="1868.59" cy="249.4722" fill="#84BE84" rx="3" ry="3" style="stroke:#038048;stroke-width:1;"/><text fill="#000000" font-family="sans-serif" font-size="14" lengthAdjust="spacing" textLength="214.0605" x="1877.59" y="252.8189">get(NDManager, long): Record</text><ellipse cx="1868.59" cy="265.7691" fill="#84BE84" rx="3" ry="3" style="stroke:#038048;stroke-width:1;"/><text fill="#000000" font-family="sans-serif" font-size="14" lengthAdjust="spacing" textLength="142.2354" x="1877.59" y="269.1157">availableSize(): long</text><ellipse cx="1868.59" cy="282.0659" fill="#84BE84" rx="3" ry="3" style="stroke:#038048;stroke-width:1;"/><text fill="#000000" font-family="sans-serif" font-size="14" lengthAdjust="spacing" textLength="172.9219" x="1877.59" y="285.4126">parseMap(String): float[]</text><ellipse cx="1868.59" cy="298.3628" fill="#84BE84" rx="3" ry="3" style="stroke:#038048;stroke-width:1;"/><text fill="#000000" font-family="sans-serif" font-size="14" lengthAdjust="spacing" textLength="165.416" x="1877.59" y="301.7095">prepare(Progress): void</text><ellipse cx="1868.59" cy="314.6597" fill="#84BE84" rx="3" ry="3" style="stroke:#038048;stroke-width:1;"/><text fill="#000000" font-family="sans-serif" font-size="14" lengthAdjust="spacing" text-decoration="underline" textLength="118.3984" x="1877.59" y="318.0064">builder(): Builder</text></g><!--link CSVDatasetCNN to CSVDataset--><g class="link" data-entity-1="CSVDatasetCNN" data-entity-2="CSVDataset" data-source-line="90" data-uid="lnk17" id="link_CSVDatasetCNN_CSVDataset"><path codeLine="90" d="M1718.45,325.43 C1754.8,394.07 1796.3568,472.5624 1819.2368,515.7724" fill="none" id="CSVDatasetCNN-to-CSVDataset" style="stroke:#181818;stroke-width:1;stroke-dasharray:7.0,7.0;"/><polygon fill="none" points="1827.66,531.68,1824.5394,512.9647,1813.9343,518.5802,1827.66,531.68" style="stroke:#181818;stroke-width:1;"/></g><!--link CSVDatasetMLP to CSVDataset--><g class="link" data-entity-1="CSVDatasetMLP" data-entity-2="CSVDataset" data-source-line="91" data-uid="lnk18" id="link_CSVDatasetMLP_CSVDataset"><path codeLine="91" d="M1961.55,325.43 C1925.2,394.07 1883.6432,472.5624 1860.7632,515.7724" fill="none" id="CSVDatasetMLP-to-CSVDataset" style="stroke:#181818;stroke-width:1;stroke-dasharray:7.0,7.0;"/><polygon fill="none" points="1852.34,531.68,1866.0657,518.5802,1855.4606,512.9647,1852.34,531.68" style="stroke:#181818;stroke-width:1;"/></g><!--SRC=[fLRRRXen47tdAwmyBGh91w08ALsKDXMXD4HvYQ9eC0DODVRMzYAbb7_lU6-ibuKGzIbPpyoPESSpOnBWls29x4A2ucWuI9vAUx7jCCObMCj6sNcSd_jZnYxPrZfmWk_O6eIAfiu8jNnvxVRPHejvqqV2x9trMUxLD0ebN7GaqDkceEnmMdcGowvHsgq2-MunB-sAeJDuHv5zDjDQ8gZi_8tfcKMp0OUfiNqs4jRT3D5QeRvZEYXYrUnPSAU5mQzWvW9Ldsfm1yQ94LOh9T3KxMjmV3LEfGo3xXqQegDLh5C3oc5e7c8YWUCQbPkWiRfkNL6HseZVAHvwPGJk2Mw9fYoVWqNxBAnmYCJn6zZL0oHjnZg34swL2g5FZTIJTX0GJY2r66fVW187CCvdhl1k9feI4KoFjL798tmH7qPSXiqGTOjJ6PnIcJqMwtMYZSl4j8tFi17BLlBT5n9AapbrKjmkQPJTJLdee8xP6bceV2BiaXdqmo102khYWtbvLtnbj19_S4vJOoV-3iAYT-tp7AzmBTJPOtq4nHFHwZz1Xk1857ThPWRZyJX7OmUh92MgKGZs4Th3Q78csaTmFqS8HX6VatYFQ17I8OvfrMY5jeeA4kqwIRbwTUf4iNFBxF4Ap3BhoPX60FVvQkbuvcCAYRlP5BwylhnclhiQs0-FNqBK022XhUA4jLcYQAxJcKIFG5ZbHnN5jThGwg6Bfi6xanfSLEJhzXV-iqeTUWype3oWdk6pCLL42u_5Gl0LcZS7ivh_VaRQlNFF9ugfY1m9AJnrio9sj2JYmcdELQEeNlaFQqfSlo_VRR6M4kcvCQrNRs63tejQUuzT0Ex_4gsGKYi63Ti9Z4DBrMx7WD7v9yivwksYDzk2Si9K8fe5FMqidZuNKxRj72YoDmQhuOfj5u9sE-bjDu_8jPcNRpj5v0U3Mea1JFGb5NAEfbjpMAABniC7K5IxwJ6fivfpe9eRR43Ghng9KrgvVdzunvgTdYsBz5hjHpDibCp7-DSDeudHIqC_H4u8EiiBzOcAcay856wxJulK5Cfts85Gdn3h7C7E5UqyuSuLRzS9se5TN_yTr8Xt0WsQrdy0]--></g></svg>